#!OML:ASF E:\Steps\Project 1\Capture day 1\Session 2\Subject.ASF
:FULLY-SPECIFIED
:DEGREES
456
root 9.39286 16.2811 9.44882 -157.809 -1.7317 178.082
lowerback -21.0173 -2.59151 -6.4525
upperback 2.16378 -1.78156 -0.673748
thorax 14.5619 -1.33406 2.31148
lowerneck -6.0687 -2.73293 -0.412334
upperneck 22.7963 -2.85593 2.56816
head 8.07745 -0.603173 0.75192
rclavicle -2.98177e-015 6.36111e-015
rhumerus -40.2589 -15.28 -77.973
rradius 35.9916
rwrist -2.90852
rhand -7.23871 -51.1993
rfingers 7.12502
rthumb 18.6412 639.674
lclavicle -2.98177e-015 6.36111e-015
lhumerus -32.2102 5.30926 77.3372
lradius 35.931
lwrist 1.86658
lhand -22.1518 -11.7106
lfingers 7.12502
lthumb 4.26218 18.2265
rfemur -48.5969 0.789986 17.9731
rtibia 48.0009
rfoot -16.1552 -15.4055
rtoes -32.2286
lfemur -26.5178 -8.60341 -22.3332
ltibia 12.6114
lfoot -7.67836 0.174137
ltoes -37.4775
457
root 9.39472 16.2825 9.36604 -157.738 -1.87701 177.955
lowerback -21.0988 -2.7172 -6.53946
upperback 2.28138 -1.91578 -0.63438
thorax 14.7698 -1.40878 2.35514
lowerneck -5.92789 -2.343 0.055937
upperneck 22.2283 -2.32024 2.05084
head 7.83967 -0.391164 0.543063
rclavicle 1.94809e-014 -7.95139e-016
rhumerus -40.2165 -15.44 -77.8019
rradius 35.7153
rwrist -2.88802
rhand -7.59342 -50.4932
rfingers 7.12502
rthumb 18.3 640.348
lclavicle 1.94809e-014 -7.95139e-016
lhumerus -31.6834 5.01154 77.4222
lradius 36.3637
lwrist 2.02745
lhand -22.2852 -11.7327
lfingers 7.12502
lthumb 4.13335 18.207
rfemur -48.5043 0.986848 17.4275
rtibia 45.4126
rfoot -15.8059 -15.7443
rtoes -32.839
lfemur -26.0977 -8.60838 -22.5204
ltibia 12.3173
lfoot -7.76465 -0.0484738
ltoes -37.3776
458
root 9.40042 16.2821 9.28268 -157.601 -2.05799 177.901
lowerback -21.101 -2.75429 -6.54879
upperback 2.29259 -1.96228 -0.631271
thorax 14.7898 -1.43119 2.34773
lowerneck -6.20481 -2.45512 0.193669
upperneck 22.3672 -2.50803 2.0555
head 7.93674 -0.466605 0.503708
rclavicle 6.36111e-015 -2.78299e-015
rhumerus -40.4527 -15.7881 -77.5904
rradius 35.6003
rwrist -2.76613
rhand -7.42794 -51.4205
rfingers 7.12502
rthumb 18.4592 639.435
lclavicle 6.36111e-015 -2.78299e-015
lhumerus -31.5185 4.5066 77.4955
lradius 37.0009
lwrist 2.14747
lhand -22.5892 -12.1785
lfingers 7.12502
lthumb 3.83976 17.7666
rfemur -48.4358 1.25327 16.9531
rtibia 42.7636
rfoot -15.3541 -16.1493
rtoes -33.8853
lfemur -25.7919 -8.59278 -22.5658
ltibia 12.065
lfoot -7.8825 -0.263255
ltoes -36.9461
459
root 9.40716 16.2801 9.20177 -157.406 -2.29994 177.917
lowerback -21.2163 -2.99767 -6.55364
upperback 2.01189 -2.32311 -0.416756
thorax 14.5683 -1.59832 2.47677
lowerneck -5.03633 -2.4332 -0.466821
upperneck 22.0985 -2.39404 2.45785
head 7.64842 -0.419103 0.766982
rclavicle 1.78906e-015 2.18663e-014
rhumerus -41.0958 -15.2163 -77.2094
rradius 35.5234
rwrist -2.72958
rhand -7.22288 -52.1319
rfingers 7.12502
rthumb 18.6565 638.743
lclavicle 1.78906e-015 2.18663e-014
lhumerus -32.5381 4.57683 77.5771
lradius 38.1067
lwrist 2.15351
lhand -22.7823 -12.4729
lfingers 7.12502
lthumb 3.65331 17.4755
rfemur -48.3518 1.51918 16.5944
rtibia 40.1026
rfoot -15.2236 -16.1214
rtoes -34.1962
lfemur -25.6319 -8.41082 -22.5395
ltibia 11.9379
lfoot -7.98422 -0.660166
ltoes -36.8707
460
root 9.40922 16.2786 9.12027 -157.326 -2.42247 177.828
lowerback -21.374 -2.95313 -6.54447
upperback 2.30509 -2.22314 -0.481698
thorax 14.9996 -1.55955 2.41875
lowerneck -5.81304 -2.62449 -0.317296
upperneck 22.2649 -2.75947 2.57756
head 7.84996 -0.578304 0.744266
rclavicle 3.77691e-015 5.56597e-015
rhumerus -40.7378 -15.847 -77.1448
rradius 35.3811
rwrist -2.55685
rhand -7.267 -52.7168
rfingers 7.12502
rthumb 18.614 638.154
lclavicle 3.77691e-015 5.56597e-015
lhumerus -31.7948 4.00652 77.6621
lradius 38.6803
lwrist 2.16029
lhand -22.7592 -12.4078
lfingers 7.12502
lthumb 3.67567 17.5402
rfemur -48.0937 1.85892 16.069
rtibia 37.5037
rfoot -15.3412 -15.7258
rtoes -33.9103
lfemur -25.3071 -8.24152 -22.6987
ltibia 11.8054
lfoot -8.15482 -1.04148
ltoes -36.8504
461
root 9.41282 16.2776 9.03293 -157.291 -2.50671 177.708
lowerback -21.1268 -3.11592 -6.61859
upperback 2.009 -2.4745 -0.387818
thorax 14.5331 -1.67263 2.49795
lowerneck -5.06647 -2.6205 -0.539826
upperneck 22.288 -2.62842 2.44659
head 7.72164 -0.528847 0.758109
rclavicle 5.76476e-015 1.19271e-015
rhumerus -41.5281 -15.4774 -76.8108
rradius 35.3203
rwrist -2.47836
rhand -7.32973 -52.4189
rfingers 7.12502
rthumb 18.5537 638.446
lclavicle 5.76476e-015 1.19271e-015
lhumerus -32.4182 3.99948 77.6361
lradius 39.2527
lwrist 2.10057
lhand -22.6558 -12.2324
lfingers 7.12502
lthumb 3.77551 17.7139
rfemur -47.7824 2.33138 15.4468
rtibia 34.9377
rfoot -15.3998 -15.3021
rtoes -34.0082
lfemur -24.8965 -8.18413 -22.8667
ltibia 11.6702
lfoot -8.39311 -1.29702
ltoes -35.9079
462
root 9.41912 16.2766 8.94198 -157.214 -2.63385 177.766
lowerback -21.1577 -3.22421 -6.52529
upperback 1.9314 -2.66056 -0.254433
thorax 14.4801 -1.75341 2.53538
lowerneck -4.38715 -2.46142 -0.661029
upperneck 21.7764 -2.37627 2.36079
head 7.42645 -0.442458 0.772024
rclavicle 2.79292e-014 3.02153e-014
rhumerus -41.8465 -15.435 -76.5163
rradius 35.0979
rwrist -2.33059
rhand -7.19715 -51.8224
rfingers 7.12502
rthumb 18.6812 639.055
lclavicle 2.79292e-014 3.02153e-014
lhumerus -32.5865 4.02363 77.669
lradius 39.7122
lwrist 2.04734
lhand -22.6877 -12.429
lfingers 7.12502
lthumb 3.74471 17.5178
rfemur -47.5192 2.87529 15.0508
rtibia 32.4391
rfoot -15.5391 -14.6395
rtoes -33.4623
lfemur -24.5132 -8.14224 -22.7701
ltibia 11.4764
lfoot -8.5773 -1.46168
ltoes -34.5267
463
root 9.4235 16.2745 8.85237 -157.16 -2.74344 177.812
lowerback -21.2808 -3.20075 -6.38084
upperback 2.01953 -2.65238 -0.229305
thorax 14.6501 -1.74226 2.47847
lowerneck -4.89978 -2.77917 -0.918448
upperneck 22.3092 -2.82394 2.6123
head 7.71053 -0.635763 0.86254
rclavicle 1.88845e-014 5.96354e-015
rhumerus -41.9408 -15.8918 -76.2474
rradius 34.8638
rwrist -2.12904
rhand -7.17219 -51.5341
rfingers 7.12502
rthumb 18.7052 639.345
lclavicle 1.88845e-014 5.96354e-015
lhumerus -32.1871 3.65515 77.7114
lradius 39.9791
lwrist 2.27309
lhand -22.7988 -12.8585
lfingers 7.12502
lthumb 3.63736 17.0902
rfemur -47.1935 3.45558 14.6252
rtibia 30.0025
rfoot -15.5337 -13.9572
rtoes -32.0474
lfemur -24.0933 -8.1764 -22.687
ltibia 11.234
lfoot -8.77828 -1.51242
ltoes -34.4599
464
root 9.43019 16.2705 8.7701 -157.013 -2.84483 177.687
lowerback -21.2394 -3.17599 -6.42543
upperback 2.04363 -2.60462 -0.268941
thorax 14.65 -1.72267 2.47554
lowerneck -5.11536 -2.786 -0.643881
upperneck 22.3078 -2.86701 2.52731
head 7.74409 -0.645088 0.782241
rclavicle 2.5842e-015 -1.11319e-014
rhumerus -42.0975 -16.4697 -75.968
rradius 34.6649
rwrist -1.92352
rhand -7.33983 -51.4453
rfingers 7.12502
rthumb 18.544 639.419
lclavicle 2.5842e-015 -1.11319e-014
lhumerus -31.6917 3.23097 77.7353
lradius 40.1804
lwrist 2.4782
lhand -23.0003 -12.6749
lfingers 7.12502
lthumb 3.44285 17.277
rfemur -46.928 4.02924 13.9682
rtibia 27.529
rfoot -14.9924 -13.3589
rtoes -31.4526
lfemur -23.8691 -8.17205 -22.7971
ltibia 11.1057
lfoot -8.95399 -1.62919
ltoes -35.347
465
root 9.43885 16.2644 8.69021 -156.763 -3.03597 177.55
lowerback -21.249 -3.19813 -6.49288
upperback 2.09626 -2.61084 -0.279883
thorax 14.7227 -1.73224 2.49726
lowerneck -5.83572 -2.99855 -0.715465
upperneck 22.5152 -3.24279 2.74071
head 7.95591 -0.814363 0.825974
rclavicle -3.47873e-015 -1.19271e-014
rhumerus -42.1158 -17.0151 -75.7491
rradius 34.5626
rwrist -1.75534
rhand -7.39569 -51.6656
rfingers 7.12502
rthumb 18.4902 639.193
lclavicle -3.47873e-015 -1.19271e-014
lhumerus -31.2211 3.11189 77.7699
lradius 40.5073
lwrist 2.32509
lhand -23.0333 -12.1746
lfingers 7.12502
lthumb 3.41097 17.7779
rfemur -46.749 4.41559 13.4052
rtibia 25.1371
rfoot -14.2319 -12.6247
rtoes -32.4168
lfemur -23.8525 -8.10556 -22.9097
ltibia 11.1595
lfoot -9.0757 -1.89286
ltoes -35.8806
466
root 9.44713 16.2568 8.60506 -156.649 -3.23332 177.482
lowerback -21.3358 -3.21472 -6.47526
upperback 2.23185 -2.61926 -0.291452
thorax 14.9361 -1.73868 2.46423
lowerneck -5.94472 -2.80697 -0.328963
upperneck 22.2513 -3.02595 2.56237
head 7.87375 -0.713174 0.716545
rclavicle 1.98785e-016 7.95139e-015
rhumerus -42.0105 -17.4971 -75.6259
rradius 34.4121
rwrist -1.55359
rhand -7.26234 -51.6936
rfingers 7.12502
rthumb 18.6185 639.177
lclavicle 1.98785e-016 7.95139e-015
lhumerus -30.7684 3.06756 77.7681
lradius 40.8709
lwrist 2.14155
lhand -22.7568 -11.8775
lfingers 7.12502
lthumb 3.67795 18.0705
rfemur -46.4448 4.78809 12.9852
rtibia 23.0292
rfoot -13.8493 -11.8863
rtoes -33.1607
lfemur -23.7136 -8.05751 -22.9602
ltibia 11.3591
lfoot -9.31399 -2.17809
ltoes -35.7255
